<svg width="62" height="62" viewBox="0 0 62 62" fill="none" xmlns="http://www.w3.org/2000/svg">
<mask id="mask0_29_233" style="mask-type:luminance" maskUnits="userSpaceOnUse" x="2" y="1" width="28" height="60">
<path d="M2.64539 1.6908H29.9254V60.3428H2.64539V1.6908Z" fill="white"/>
</mask>
<g mask="url(#mask0_29_233)">
<path fill-rule="evenodd" clip-rule="evenodd" d="M4.16309 1.70764C4.16309 1.70764 6.5107 9.27745 16.9428 15.0196C29.7588 22.0669 31.5103 27.1386 28.6789 43.5835C28.3437 46.4548 24.8414 55.7025 10.0131 60.3267C10.0131 60.3267 13.8131 54.2856 13.9255 49.177C14.0004 44.7395 13.5529 37.7665 19.2904 34.5599C14.4842 33.1061 9.97559 32.5455 11.0942 26.1705C7.55437 25.1256 4.53703 20.9871 6.66053 17.3329C6.65989 17.3316 -0.00898875 12.1488 4.16309 1.70764Z" fill="white"/>
</g>
<mask id="mask1_29_233" style="mask-type:luminance" maskUnits="userSpaceOnUse" x="32" y="1" width="28" height="60">
<path d="M32.0747 1.6908H59.1894V60.3428H32.0747V1.6908Z" fill="white"/>
</mask>
<g mask="url(#mask1_29_233)">
<path fill-rule="evenodd" clip-rule="evenodd" d="M57.8137 1.70764C57.8137 1.70764 55.4668 9.27745 45.0346 15.0196C32.2187 22.0669 30.4672 27.1386 33.2986 43.5835C33.6337 46.4548 37.1361 55.7025 51.9644 60.3267C51.9644 60.3267 48.1643 54.2856 48.052 49.177C47.9771 44.7395 48.4246 37.7665 42.687 34.5599C47.4933 33.1061 52.0019 32.5455 50.8833 26.1705C54.4231 25.1256 57.4405 20.9871 55.3163 17.3329C55.3176 17.3316 61.9865 12.1488 57.8137 1.70764Z" fill="white"/>
</g>
<mask id="mask2_29_233" style="mask-type:luminance" maskUnits="userSpaceOnUse" x="9" y="34" width="20" height="27">
<path d="M9.92004 34.5547H28.768V60.3428H9.92004V34.5547Z" fill="white"/>
</mask>
<g mask="url(#mask2_29_233)">
<path fill-rule="evenodd" clip-rule="evenodd" d="M28.6789 43.5834C28.3438 46.4548 24.8414 55.7025 10.0131 60.3266C10.0131 60.3266 13.8131 54.2855 13.9255 49.177C14.0004 44.7394 13.5529 37.7664 19.2905 34.5598C23.2391 35.7159 27.375 37.5048 28.6789 43.5834Z" fill="white"/>
</g>
<mask id="mask3_29_233" style="mask-type:luminance" maskUnits="userSpaceOnUse" x="33" y="34" width="20" height="27">
<path d="M33.2321 34.5547H52.0801V60.3428H33.2321V34.5547Z" fill="white"/>
</mask>
<g mask="url(#mask3_29_233)">
<path fill-rule="evenodd" clip-rule="evenodd" d="M33.2986 43.5834C33.6338 46.4548 37.1361 55.7025 51.9645 60.3266C51.9645 60.3266 48.1644 54.2855 48.052 49.177C47.9771 44.7394 48.4246 37.7664 42.6871 34.5598C38.7384 35.7159 34.6025 37.5048 33.2986 43.5834Z" fill="white"/>
</g>
</svg>
